<svg width="347" height="342" viewBox="0 0 347 342" fill="none" xmlns="http://www.w3.org/2000/svg">
<path d="M311.1 161.2C311.1 240.8 246.6 305.3 166.9 305.3C87.2998 305.3 22.7998 240.8 22.7998 161.2C22.7998 81.5 87.2998 17 166.9 17C246.6 17 311.1 81.5 311.1 161.2Z" fill="#85232C" fill-opacity="0.1"/>
<path d="M220.7 125.1L102.6 104.7L74.2002 113.3L147.4 147.2L220.7 125.1Z" fill="#85232C"/>
<path d="M315.9 99.9C306.1 93.7 284 91.8 261.9 98.5L97.7999 148L85.1999 151.8L73.4999 155.3C66.5999 157.4 29.4 173.5 24.6 180.9C19.8 188.3 71.0999 196.6 84.7999 192.4C88.9999 191.2 92.8999 190 96.3999 188.9L109 185.1L273.1 135.6C300.3 127.3 327.5 107.2 315.9 99.9Z" fill="#85232C"/>
<path d="M276.4 125.6L102 178.3L88.6001 182.3C85.0001 183.4 80.8001 184.7 76.2001 186C66.8001 188.9 40.2 186.7 24.5 182.7C28 189.6 72.3 196.2 84.8 192.4C89 191.2 92.9 190 96.4 188.9L109 185.1L273.1 135.6C296.6 128.5 320.1 112.5 318.6 103.6C309.7 111.6 293 120.6 276.4 125.6Z" fill="#85232C"/>
<path d="M87.7002 158.2L20.5001 126.1L5.7002 130.6L40.5001 172.5L87.7002 158.2Z" fill="#85232C"/>
<path d="M224.5 137.7L137.5 220L109 228.6L151.3 159.8L224.5 137.7Z" fill="#85232C"/>
<path d="M74.8003 172.2L45.8003 199.6L36.3003 202.4L50.4003 179.6L74.8003 172.2Z" fill="#85232C"/>
<path d="M123.4 157.3C122.4 157.7 121.3 157.1 121 156L120.5 154.5C120.2 153.4 120.8 152.3 121.8 152C122.9 151.7 124 152.3 124.3 153.3L124.7 154.9C125 155.9 124.5 157 123.4 157.3Z" fill="white" fill-opacity="0.2"/>
<path d="M132.2 154.7C131.1 155 130 154.4 129.7 153.4L129.2 151.8C128.9 150.8 129.501 149.7 130.601 149.4C131.601 149.1 132.7 149.7 133 150.7L133.5 152.3C133.8 153.3 133.2 154.4 132.2 154.7Z" fill="white" fill-opacity="0.2"/>
<path d="M140.9 152.1C139.9 152.4 138.8 151.8 138.5 150.7L138 149.2C137.7 148.2 138.3 147.1 139.3 146.7C140.3 146.4 141.4 147 141.8 148.1L142.2 149.6C142.5 150.7 142 151.7 140.9 152.1Z" fill="white" fill-opacity="0.2"/>
<path d="M149.7 149.4C148.6 149.7 147.5 149.1 147.2 148.1L146.7 146.6C146.4 145.5 147.001 144.4 148.101 144.1C149.101 143.8 150.2 144.4 150.5 145.4L151 147C151.3 148 150.7 149.1 149.7 149.4Z" fill="white" fill-opacity="0.2"/>
<path d="M158.4 146.8C157.4 147.1 156.3 146.5 156 145.5L155.5 143.9C155.2 142.9 155.8 141.8 156.8 141.5C157.8 141.1 158.9 141.7 159.3 142.8L159.7 144.3C160 145.4 159.4 146.5 158.4 146.8Z" fill="white" fill-opacity="0.2"/>
<path d="M167.201 144.1C166.101 144.5 165.001 143.9 164.701 142.8L164.201 141.3C163.901 140.2 164.5 139.1 165.5 138.8C166.6 138.5 167.7 139.1 168 140.1L168.5 141.7C168.8 142.7 168.201 143.8 167.201 144.1Z" fill="white" fill-opacity="0.2"/>
<path d="M175.9 141.5C174.9 141.8 173.8 141.2 173.4 140.2L173 138.6C172.7 137.6 173.3 136.5 174.3 136.2C175.3 135.9 176.4 136.5 176.7 137.5L177.2 139C177.5 140.1 176.9 141.2 175.9 141.5Z" fill="white" fill-opacity="0.2"/>
<path d="M184.601 138.9C183.601 139.2 182.501 138.6 182.201 137.5L181.701 136C181.401 134.9 182 133.9 183 133.5C184.1 133.2 185.2 133.8 185.5 134.9L186 136.4C186.3 137.4 185.701 138.5 184.601 138.9Z" fill="white" fill-opacity="0.2"/>
<path d="M193.4 136.2C192.4 136.5 191.3 135.9 190.9 134.9L190.5 133.3C190.2 132.3 190.7 131.2 191.8 130.9C192.8 130.6 193.9 131.2 194.2 132.2L194.7 133.8C195 134.8 194.4 135.9 193.4 136.2Z" fill="white" fill-opacity="0.2"/>
<path d="M202.101 133.6C201.101 133.9 200.001 133.3 199.701 132.3L199.201 130.7C198.901 129.7 199.5 128.6 200.5 128.3C201.6 127.9 202.7 128.5 203 129.6L203.5 131.1C203.8 132.2 203.201 133.3 202.101 133.6Z" fill="white" fill-opacity="0.2"/>
<path d="M210.9 130.9C209.8 131.2 208.7 130.7 208.4 129.6L208 128.1C207.7 127 208.2 125.9 209.3 125.6C210.3 125.3 211.4 125.9 211.7 126.9L212.2 128.5C212.5 129.5 211.9 130.6 210.9 130.9Z" fill="white" fill-opacity="0.2"/>
<path d="M219.601 128.3C218.601 128.6 217.501 128 217.201 127L216.701 125.4C216.401 124.4 217 123.3 218 123C219.1 122.7 220.2 123.2 220.5 124.3L220.9 125.8C221.3 126.9 220.701 128 219.601 128.3Z" fill="white" fill-opacity="0.2"/>
<path d="M228.4 125.6C227.3 126 226.2 125.4 225.9 124.3L225.5 122.8C225.1 121.7 225.7 120.6 226.8 120.3C227.8 120 228.9 120.6 229.2 121.6L229.7 123.2C230 124.2 229.4 125.3 228.4 125.6Z" fill="white" fill-opacity="0.2"/>
<path d="M237.101 123C236.101 123.3 235.001 122.7 234.701 121.7L234.201 120.1C233.901 119.1 234.5 118 235.5 117.7C236.6 117.4 237.7 118 238 119L238.4 120.6C238.8 121.6 238.201 122.7 237.101 123Z" fill="white" fill-opacity="0.2"/>
<path d="M245.9 120.4C244.8 120.7 243.7 120.1 243.4 119L243 117.5C242.6 116.5 243.2 115.4 244.3 115C245.3 114.7 246.4 115.3 246.7 116.4L247.2 117.9C247.5 119 246.9 120 245.9 120.4Z" fill="white" fill-opacity="0.2"/>
<path d="M254.601 117.7C253.601 118 252.501 117.4 252.201 116.4L251.701 114.9C251.401 113.8 252 112.7 253 112.4C254.1 112.1 255.1 112.7 255.5 113.7L255.9 115.3C256.2 116.3 255.701 117.4 254.601 117.7Z" fill="white" fill-opacity="0.2"/>
<path d="M268.4 180.1C268.4 176.9 265.9 174.4 262.7 174.4C259.6 174.4 257.1 176.9 257.1 180.1C257.1 183.2 259.6 185.7 262.7 185.7C265.9 185.7 268.4 183.2 268.4 180.1Z" stroke="#85232C" stroke-width="4" stroke-linecap="round" stroke-linejoin="round"/>
<path d="M206.5 274.8C206.5 273.5 205.5 272.5 204.2 272.5C203 272.5 202 273.5 202 274.8C202 276 203 277 204.2 277C205.5 277 206.5 276 206.5 274.8Z" stroke="#85232C" stroke-width="1.6" stroke-linecap="round" stroke-linejoin="round"/>
<path d="M210.9 69.9C210.9 68.7 209.9 67.7 208.7 67.7C207.4 67.7 206.4 68.7 206.4 69.9C206.4 71.2 207.4 72.2 208.7 72.2C209.9 72.2 210.9 71.2 210.9 69.9Z" stroke="#101A14" stroke-width="1.6" stroke-linecap="round" stroke-linejoin="round"/>
<path d="M134.4 245C134.4 243.8 133.4 242.8 132.1 242.8C130.9 242.8 129.9 243.8 129.9 245C129.9 246.3 130.9 247.3 132.1 247.3C133.4 247.3 134.4 246.3 134.4 245Z" stroke="#101A14" stroke-width="1.6" stroke-linecap="round" stroke-linejoin="round"/>
<path d="M73.3002 263.5H61.2002" stroke="#101A14" stroke-width="4" stroke-linecap="round" stroke-linejoin="round"/>
<path d="M282.7 69.8999H270.5" stroke="#85232C" stroke-width="4" stroke-linecap="round" stroke-linejoin="round"/>
<path d="M312.5 237.3C308.7 234.7 302.7 232.9 296 232.9C293.4 232.9 291 233.2 288.8 233.6C286.4 230.9 281.3 229 275.3 229C275.167 229 275 229 274.8 229C272.8 224.1 264.5 220.3 254.6 220.3C244.7 220.3 236.4 224.1 234.4 229C234.267 229 234.1 229 233.9 229C229 229 224.9 230.9 223.9 233.3C222.167 233.033 220.333 232.9 218.4 232.9C211.6 232.9 205.7 234.7 201.9 237.3H312.5Z" fill="white"/>
<path d="M134.1 92.3C130.8 89.8 125.7 88.1 119.8 88.1C118.867 88.1 117.967 88.1667 117.1 88.3C115.1 86.5 111.7 85.4001 107.8 85.4001C106.8 80.3001 99.2001 76.3 90.1001 76.3C83.0001 76.3 76.9 78.7 74 82.2C71.6 81.1 68.6 80.5 65.4 80.5C58.6 80.5 52.9 83.2 51.3 86.8C50.4334 86.6667 49.5334 86.6 48.6001 86.6C44.2001 86.6 40.3 88.2001 38.5 90.4001C35.8 89.4001 32.7 88.9001 29.3 88.9001C24.1 88.9001 19.4001 90.2 16.1001 92.3H134.1Z" fill="white"/>
<path d="M172.9 82.7002C171.2 81.4002 168.7 80.6002 165.7 80.6002C165.233 80.6002 164.8 80.6335 164.4 80.7002C163.4 79.8002 161.7 79.3002 159.7 79.2002C159.2 76.7002 155.4 74.7002 150.9 74.7002C147.3 74.7002 144.3 75.9002 142.8 77.6002C141.6 77.1002 140.1 76.8002 138.5 76.8002C135.1 76.8002 132.3 78.2002 131.5 80.0002C131.033 79.9335 130.567 79.9002 130.1 79.9002C127.9 79.9002 126 80.6002 125.1 81.7002C123.7 81.3002 122.2 81.0002 120.5 81.0002C117.9 81.0002 115.5 81.6002 113.9 82.7002H172.9Z" fill="white"/>
<path d="M168.1 224.3C169.7 223.1 172.3 222.3 175.2 222.3C175.667 222.3 176.133 222.3 176.6 222.3C177.6 221.5 179.3 220.9 181.2 220.9C181.7 218.3 185.5 216.4 190.1 216.4C193.6 216.4 196.7 217.6 198.1 219.3C199.3 218.8 200.8 218.5 202.4 218.5C205.8 218.5 208.7 219.8 209.5 221.6C209.9 221.533 210.333 221.5 210.8 221.5C213 221.5 215 222.3 215.9 223.4C217.2 222.9 218.8 222.6 220.5 222.6C223.1 222.6 225.4 223.3 227.1 224.3H168.1Z" fill="white"/>
<path d="M201.3 48.4001C203.2 46.9001 206.2 46.0001 209.7 46.0001C210.233 46.0001 210.733 46.0334 211.2 46.1001C212.4 45.0001 214.4 44.4001 216.6 44.4001C217.3 41.4001 221.7 39.1001 227 39.1001C231.1 39.1001 234.7 40.5001 236.4 42.5001C237.8 41.9001 239.5 41.5001 241.4 41.5001C245.3 41.5001 248.6 43.1001 249.6 45.2001C250.067 45.1334 250.567 45.1001 251.1 45.1001C253.7 45.1001 256 46.0001 257 47.3001C258.6 46.7001 260.4 46.4001 262.4 46.4001C265.5 46.4001 268.2 47.2001 270.1 48.4001H201.3Z" fill="white"/>
<path d="M102.3 232.8C99.5 230.9 95 229.7 89.9 229.7C89.1 229.7 88.3334 229.733 87.6001 229.8C85.8001 228.5 82.9 227.7 79.5 227.7C78.6 223.8 72.1001 220.9 64.1001 220.9C58.0001 220.9 52.7001 222.7 50.2001 225.3C48.1001 224.5 45.5001 224 42.7001 224C36.8001 224 31.9 226 30.5 228.7C29.7667 228.633 29.0001 228.6 28.2001 228.6C24.3001 228.6 21 229.7 19.5 231.4C17.1 230.7 14.4 230.3 11.5 230.3C6.9 230.3 2.9 231.2 0 232.8H102.3Z" fill="white"/>
<path d="M41.3 17.1C41.3 26.6 33.6 34.3 24.2 34.3C14.7 34.3 7 26.6 7 17.1C7 7.60001 14.7 0 24.2 0C33.6 0 41.3 7.60001 41.3 17.1Z" fill="#85232C"/>
</svg>
